<svg width="124" height="35" viewBox="0 0 124 35" fill="none" xmlns="http://www.w3.org/2000/svg">
<path d="M13.286 22.852C13.286 23.944 13.0173 24.8973 12.48 25.712C11.9427 26.5267 11.1627 27.1593 10.14 27.61C9.13467 28.0433 7.904 28.26 6.448 28.26C5.80667 28.26 5.174 28.2167 4.55 28.13C3.94333 28.0433 3.354 27.922 2.782 27.766C2.22733 27.5927 1.69867 27.3847 1.196 27.142V23.476C2.08 23.8573 2.99 24.2127 3.926 24.542C4.87933 24.854 5.824 25.01 6.76 25.01C7.40133 25.01 7.91267 24.9233 8.294 24.75C8.69267 24.5767 8.97867 24.3427 9.152 24.048C9.34267 23.7533 9.438 23.4153 9.438 23.034C9.438 22.566 9.27333 22.1673 8.944 21.838C8.632 21.5087 8.20733 21.2053 7.67 20.928C7.13267 20.6333 6.51733 20.3213 5.824 19.992C5.39067 19.784 4.92267 19.5413 4.42 19.264C3.91733 18.9693 3.432 18.614 2.964 18.198C2.51333 17.7647 2.14067 17.2447 1.846 16.638C1.55133 16.0313 1.404 15.3033 1.404 14.454C1.404 13.3447 1.65533 12.4 2.158 11.62C2.678 10.8227 3.406 10.216 4.342 9.8C5.29533 9.384 6.41333 9.176 7.696 9.176C8.66667 9.176 9.58533 9.28867 10.452 9.514C11.336 9.73933 12.2547 10.06 13.208 10.476L11.934 13.544C11.0847 13.1973 10.322 12.9287 9.646 12.738C8.97 12.5473 8.27667 12.452 7.566 12.452C7.08067 12.452 6.66467 12.53 6.318 12.686C5.97133 12.842 5.70267 13.0587 5.512 13.336C5.33867 13.6133 5.252 13.9427 5.252 14.324C5.252 14.7573 5.382 15.13 5.642 15.442C5.902 15.7367 6.292 16.0227 6.812 16.3C7.332 16.5773 7.982 16.9067 8.762 17.288C9.71533 17.7387 10.5213 18.2067 11.18 18.692C11.856 19.1773 12.376 19.7493 12.74 20.408C13.104 21.0667 13.286 21.8813 13.286 22.852ZM27.3463 28H16.6603V9.436H27.3463V12.66H20.5863V16.742H26.8783V19.966H20.5863V24.75H27.3463V28ZM123.226 9.436L118.494 28H114.022L111.5 18.25C111.448 18.0593 111.379 17.7733 111.292 17.392C111.223 17.0107 111.136 16.5947 111.032 16.144C110.945 15.6933 110.867 15.2687 110.798 14.87C110.729 14.454 110.677 14.1333 110.642 13.908C110.625 14.1333 110.573 14.454 110.486 14.87C110.417 15.2687 110.339 15.6933 110.252 16.144C110.165 16.5773 110.079 16.9933 109.992 17.392C109.905 17.7733 109.836 18.068 109.784 18.276L107.288 28H102.816L98.084 9.436H101.958L104.324 19.576C104.393 19.8707 104.471 20.2347 104.558 20.668C104.645 21.084 104.731 21.526 104.818 21.994C104.905 22.4447 104.983 22.8867 105.052 23.32C105.139 23.7533 105.199 24.126 105.234 24.438C105.269 24.1087 105.321 23.736 105.39 23.32C105.459 22.8867 105.537 22.4533 105.624 22.02C105.711 21.5693 105.789 21.1533 105.858 20.772C105.945 20.3733 106.023 20.0613 106.092 19.836L108.796 9.436H112.514L115.218 19.836C115.27 20.0613 115.339 20.3733 115.426 20.772C115.513 21.1533 115.599 21.5693 115.686 22.02C115.773 22.4707 115.851 22.9127 115.92 23.346C115.989 23.762 116.041 24.126 116.076 24.438C116.128 24.0047 116.206 23.4933 116.31 22.904C116.414 22.2973 116.527 21.6907 116.648 21.084C116.787 20.4773 116.899 19.9747 116.986 19.576L119.352 9.436H123.226Z" fill="#FF4B77"/>
<path d="M48.0571 18.692C48.0571 20.1307 47.8751 21.4393 47.5111 22.618C47.1645 23.7793 46.6271 24.7847 45.8991 25.634C45.1885 26.4833 44.2698 27.1333 43.1431 27.584C42.0338 28.0347 40.7251 28.26 39.2171 28.26C37.7091 28.26 36.3918 28.0347 35.2651 27.584C34.1558 27.116 33.2371 26.466 32.5091 25.634C31.7985 24.7847 31.2611 23.7707 30.8971 22.592C30.5505 21.4133 30.3771 20.1047 30.3771 18.666C30.3771 16.742 30.6891 15.0693 31.3131 13.648C31.9545 12.2267 32.9251 11.126 34.2251 10.346C35.5425 9.54867 37.2151 9.15 39.2431 9.15C41.2538 9.15 42.9091 9.54867 44.2091 10.346C45.5091 11.126 46.4711 12.2353 47.0951 13.674C47.7365 15.0953 48.0571 16.768 48.0571 18.692ZM34.5111 18.692C34.5111 19.992 34.6758 21.11 35.0051 22.046C35.3345 22.982 35.8458 23.7013 36.5391 24.204C37.2325 24.7067 38.1251 24.958 39.2171 24.958C40.3438 24.958 41.2451 24.7067 41.9211 24.204C42.6145 23.7013 43.1171 22.982 43.4291 22.046C43.7585 21.11 43.9231 19.992 43.9231 18.692C43.9231 16.7333 43.5591 15.1993 42.8311 14.09C42.1031 12.9807 40.9071 12.426 39.2431 12.426C38.1338 12.426 37.2325 12.6773 36.5391 13.18C35.8458 13.6827 35.3345 14.402 35.0051 15.338C34.6758 16.274 34.5111 17.392 34.5111 18.692ZM67.0085 21.448C67.0085 22.7307 66.7225 23.892 66.1505 24.932C65.5958 25.9547 64.7465 26.7693 63.6025 27.376C62.4758 27.9653 61.0458 28.26 59.3125 28.26C56.8512 28.26 54.9792 27.636 53.6965 26.388C52.4138 25.1227 51.7725 23.4587 51.7725 21.396V9.436H55.6985V20.798C55.6985 22.3233 56.0105 23.398 56.6345 24.022C57.2585 24.646 58.1858 24.958 59.4165 24.958C60.2832 24.958 60.9852 24.8107 61.5225 24.516C62.0598 24.2213 62.4498 23.762 62.6925 23.138C62.9525 22.514 63.0825 21.7253 63.0825 20.772V9.436H67.0085V21.448ZM71.5548 28V9.436H75.4808V24.75H83.0208V28H71.5548ZM89.74 25.27C89.584 25.8767 89.3847 26.5353 89.142 27.246C88.8993 27.9393 88.6393 28.6327 88.362 29.326C88.0847 30.0367 87.7987 30.7127 87.504 31.354H84.722C84.8953 30.6607 85.06 29.9327 85.216 29.17C85.372 28.4247 85.5193 27.688 85.658 26.96C85.7967 26.232 85.9093 25.5733 85.996 24.984H89.558L89.74 25.27Z" fill="#2F2F2F"/>
<ellipse cx="40.5" cy="17" rx="0.5" ry="1" fill="#2F2F2F"/>
<ellipse cx="38.5" cy="17" rx="0.5" ry="1" fill="#2F2F2F"/>
<path d="M41 19C41 19.5523 40.5523 20 40 20C39.4477 20 39 19.5523 39 19" stroke="#2F2F2F" stroke-linecap="round"/>
</svg>
