<svg width="16" height="16" viewBox="0 0 16 16" fill="none" xmlns="http://www.w3.org/2000/svg">
<path d="M10.305 7.99999L4.64366 2.18199C4.59705 2.13511 4.5602 2.07944 4.53524 2.01822C4.51029 1.957 4.49772 1.89144 4.49827 1.82533C4.49882 1.75922 4.51247 1.69387 4.53844 1.63308C4.56441 1.57228 4.60218 1.51723 4.64957 1.47113C4.69695 1.42502 4.75301 1.38877 4.81449 1.36448C4.87598 1.34018 4.94167 1.32832 5.00777 1.32957C5.07387 1.33083 5.13907 1.34519 5.19958 1.37181C5.2601 1.39843 5.31473 1.43679 5.36033 1.48466L11.3603 7.65133C11.4511 7.74467 11.502 7.86976 11.502 7.99999C11.502 8.13023 11.4511 8.25532 11.3603 8.34866L5.36033 14.5153C5.31473 14.5632 5.2601 14.6016 5.19958 14.6282C5.13907 14.6548 5.07387 14.6692 5.00777 14.6704C4.94167 14.6717 4.87598 14.6598 4.81449 14.6355C4.75301 14.6112 4.69695 14.575 4.64957 14.5289C4.60218 14.4828 4.56441 14.4277 4.53844 14.3669C4.51247 14.3061 4.49882 14.2408 4.49827 14.1747C4.49772 14.1086 4.51029 14.043 4.53524 13.9818C4.5602 13.9205 4.59705 13.8649 4.64366 13.818L10.305 7.99999Z" fill="#2F2F2F"/>
</svg>
