<svg width="24" height="24" viewBox="0 0 24 24" fill="none" xmlns="http://www.w3.org/2000/svg">
<path d="M11.5016 16.3077L4.19015 8.63417C4.06809 8.50614 4 8.33603 4 8.15914C4 7.98224 4.06809 7.81214 4.19015 7.6841L4.19841 7.67584C4.25758 7.61355 4.3288 7.56396 4.40774 7.53007C4.48669 7.49618 4.5717 7.4787 4.65761 7.4787C4.74352 7.4787 4.82853 7.49618 4.90747 7.53007C4.98641 7.56396 5.05764 7.61355 5.11681 7.67584L12.0014 14.9019L18.8832 7.67584C18.9424 7.61355 19.0136 7.56396 19.0925 7.53007C19.1715 7.49618 19.2565 7.4787 19.3424 7.4787C19.4283 7.4787 19.5133 7.49618 19.5923 7.53007C19.6712 7.56396 19.7424 7.61355 19.8016 7.67584L19.8099 7.6841C19.9319 7.81214 20 7.98224 20 8.15914C20 8.33603 19.9319 8.50614 19.8099 8.63417L12.4984 16.3077C12.4341 16.3752 12.3568 16.4289 12.2711 16.4656C12.1855 16.5023 12.0932 16.5213 12 16.5213C11.9068 16.5213 11.8145 16.5023 11.7289 16.4656C11.6432 16.4289 11.5659 16.3752 11.5016 16.3077Z" fill="#8E8E8E"/>
</svg>
