<svg width="20" height="20" viewBox="0 0 20 20" fill="none" xmlns="http://www.w3.org/2000/svg">
<path d="M9.37695 4.61558L0.237682 14.2075C0.0851116 14.3676 0 14.5802 0 14.8013C0 15.0224 0.0851116 15.235 0.237682 15.3951L0.248009 15.4054C0.321972 15.4833 0.411 15.5453 0.509678 15.5876C0.608357 15.63 0.714622 15.6518 0.822009 15.6518C0.929397 15.6518 1.03566 15.63 1.13434 15.5876C1.23302 15.5453 1.32205 15.4833 1.39601 15.4054L10.0017 6.37287L18.604 15.4054C18.678 15.4833 18.767 15.5453 18.8657 15.5876C18.9643 15.63 19.0706 15.6518 19.178 15.6518C19.2854 15.6518 19.3916 15.63 19.4903 15.5876C19.589 15.5453 19.678 15.4833 19.752 15.4054L19.7623 15.3951C19.9149 15.235 20 15.0224 20 14.8013C20 14.5802 19.9149 14.3676 19.7623 14.2075L10.6231 4.61558C10.5427 4.53123 10.446 4.46407 10.3389 4.41818C10.2318 4.37229 10.1165 4.34863 10 4.34863C9.88348 4.34863 9.76818 4.37229 9.66108 4.41818C9.55398 4.46407 9.45732 4.53123 9.37695 4.61558Z" fill="white"/>
</svg>
