<svg width="24" height="24" viewBox="0 0 24 24" fill="none" xmlns="http://www.w3.org/2000/svg">
<path d="M16.9725 3.68139C17.0627 3.58592 17.1332 3.47361 17.18 3.35088C17.2268 3.22816 17.249 3.09741 17.2453 2.96611C17.2416 2.8348 17.2121 2.70552 17.1584 2.58563C17.1047 2.46575 17.0279 2.35761 16.9325 2.26739C16.837 2.17717 16.7247 2.10664 16.602 2.05983C16.4792 2.01301 16.3485 1.99083 16.2172 1.99454C16.0859 1.99825 15.9566 2.02779 15.8367 2.08147C15.7168 2.13515 15.6087 2.21192 15.5185 2.30739L7.01846 11.3074C6.84292 11.4931 6.74512 11.7389 6.74512 11.9944C6.74512 12.2499 6.84292 12.4957 7.01846 12.6814L15.5185 21.6824C15.6081 21.78 15.7162 21.8587 15.8365 21.9142C15.9569 21.9696 16.087 22.0005 16.2194 22.0052C16.3518 22.01 16.4838 21.9883 16.6077 21.9416C16.7317 21.8948 16.8451 21.8239 16.9415 21.7329C17.0378 21.642 17.1151 21.5328 17.1688 21.4117C17.2226 21.2907 17.2518 21.1601 17.2547 21.0277C17.2575 20.8952 17.2341 20.7635 17.1856 20.6402C17.1372 20.5169 17.0647 20.4045 16.9725 20.3094L9.12046 11.9944L16.9725 3.68139Z" fill="#2F2F2F"/>
</svg>
