<svg width="24" height="24" viewBox="0 0 24 24" fill="none" xmlns="http://www.w3.org/2000/svg">
<path d="M11.5016 7.69229L4.19015 15.3658C4.06809 15.4939 4 15.664 4 15.8409C4 16.0178 4.06809 16.1879 4.19015 16.3159L4.19841 16.3242C4.25758 16.3864 4.3288 16.436 4.40774 16.4699C4.48669 16.5038 4.5717 16.5213 4.65761 16.5213C4.74352 16.5213 4.82853 16.5038 4.90747 16.4699C4.98641 16.436 5.05764 16.3864 5.11681 16.3242L12.0014 9.09812L18.8832 16.3242C18.9424 16.3864 19.0136 16.436 19.0925 16.4699C19.1715 16.5038 19.2565 16.5213 19.3424 16.5213C19.4283 16.5213 19.5133 16.5038 19.5923 16.4699C19.6712 16.436 19.7424 16.3864 19.8016 16.3242L19.8099 16.3159C19.9319 16.1879 20 16.0178 20 15.8409C20 15.664 19.9319 15.4939 19.8099 15.3658L12.4984 7.69229C12.4341 7.6248 12.3568 7.57108 12.2711 7.53437C12.1855 7.49766 12.0932 7.47873 12 7.47873C11.9068 7.47873 11.8145 7.49766 11.7289 7.53437C11.6432 7.57108 11.5659 7.6248 11.5016 7.69229Z" fill="#8E8E8E"/>
</svg>
