<svg width="24" height="24" viewBox="0 0 24 24" fill="none" xmlns="http://www.w3.org/2000/svg">
<path d="M6.30515 17.5153C6.19585 17.4021 6.13537 17.2505 6.13674 17.0932C6.13811 16.9359 6.20121 16.7854 6.31245 16.6742C6.4237 16.5629 6.57419 16.4998 6.7315 16.4985C6.88882 16.4971 7.04038 16.5576 7.15355 16.6669C8.07657 17.5899 9.25256 18.2184 10.5328 18.4731C11.8131 18.7277 13.1401 18.597 14.346 18.0975C15.552 17.598 16.5828 16.7521 17.308 15.6667C18.0332 14.5814 18.4203 13.3054 18.4203 12.0001C18.4274 11.8457 18.4937 11.7001 18.6055 11.5934C18.7172 11.4868 18.8658 11.4273 19.0203 11.4275C19.1748 11.4276 19.3233 11.4874 19.4348 11.5943C19.5464 11.7011 19.6124 11.8469 19.6191 12.0013C19.6191 13.5439 19.1615 15.0519 18.3045 16.3345C17.4474 17.6171 16.2292 18.6168 14.804 19.2071C13.3788 19.7974 11.8106 19.9519 10.2976 19.651C8.78458 19.35 7.39479 18.6072 6.30395 17.5165" fill="#2F2F2F"/>
<path d="M15.7573 14.8992C15.6249 14.9875 15.4628 15.0196 15.3068 14.9884C15.1507 14.9573 15.0134 14.8654 14.9251 14.733C14.8368 14.6006 14.8047 14.4385 14.8358 14.2825C14.867 14.1264 14.9589 13.9891 15.0913 13.9008L18.6913 11.5008C18.7569 11.457 18.8304 11.4267 18.9077 11.4113C18.985 11.396 19.0645 11.3961 19.1418 11.4115C19.2191 11.427 19.2926 11.4575 19.3581 11.5013C19.4236 11.5451 19.4798 11.6014 19.5235 11.667C19.5672 11.7325 19.5976 11.8061 19.6129 11.8834C19.6282 11.9607 19.6282 12.0402 19.6128 12.1175C19.5973 12.1948 19.5668 12.2683 19.523 12.3337C19.4792 12.3992 19.4229 12.4554 19.3573 12.4992L15.7573 14.8992Z" fill="#2F2F2F"/>
<path d="M21.92 15.2676C21.9664 15.3331 21.9992 15.4072 22.0165 15.4856C22.0338 15.564 22.0351 15.6451 22.0205 15.724C22.0059 15.8029 21.9755 15.8781 21.9313 15.9451C21.8871 16.0121 21.8299 16.0696 21.7631 16.114C21.6963 16.1585 21.6212 16.1892 21.5423 16.2041C21.4635 16.2191 21.3824 16.2181 21.3039 16.2011C21.2255 16.1842 21.1512 16.1517 21.0855 16.1055C21.0198 16.0594 20.9641 16.0005 20.9216 15.9324L18.5216 12.3324C18.4389 12.2 18.4111 12.0406 18.444 11.888C18.477 11.7355 18.5681 11.6017 18.698 11.5152C18.8279 11.4287 18.9864 11.3962 19.1399 11.4247C19.2934 11.4531 19.4297 11.5403 19.52 11.6676L21.92 15.2676ZM17.2256 6.24599C17.3381 6.35865 17.4012 6.51139 17.4011 6.67061C17.401 6.82983 17.3376 6.98248 17.225 7.09499C17.1692 7.15069 17.103 7.19487 17.0301 7.22499C16.9573 7.2551 16.8792 7.27058 16.8004 7.27052C16.6411 7.27041 16.4885 7.20705 16.376 7.09439C15.4529 6.17133 14.2768 5.54275 12.9964 5.28814C11.7161 5.03354 10.389 5.16434 9.18294 5.66401C7.97693 6.16368 6.94618 7.00977 6.22105 8.09528C5.49592 9.18079 5.10898 10.457 5.10918 11.7624C5.10902 11.9215 5.04565 12.0741 4.93302 12.1865C4.82039 12.2989 4.66771 12.3619 4.50858 12.3618C4.34945 12.3616 4.1969 12.2983 4.08449 12.1856C3.97208 12.073 3.90902 11.9203 3.90918 11.7612C3.90903 10.2183 4.36646 8.71005 5.2236 7.42718C6.08074 6.1443 7.29909 5.14445 8.72454 4.55407C10.15 3.9637 11.7185 3.80933 13.2317 4.11049C14.7449 4.41165 16.1348 5.15482 17.2256 6.24599Z" fill="#2F2F2F"/>
<path d="M7.77137 8.86211C7.83693 8.81838 7.91045 8.78799 7.98776 8.77267C8.06506 8.75736 8.14462 8.75742 8.22189 8.77285C8.29917 8.78828 8.37265 8.81879 8.43814 8.86262C8.50363 8.90645 8.55984 8.96275 8.60357 9.02831C8.6473 9.09386 8.67769 9.16739 8.69301 9.24469C8.70832 9.32199 8.70826 9.40155 8.69283 9.47883C8.67739 9.5561 8.64689 9.62958 8.60306 9.69507C8.55923 9.76056 8.50293 9.81678 8.43737 9.86051L4.83737 12.2605C4.77182 12.3042 4.69829 12.3346 4.62099 12.3499C4.54369 12.3653 4.46413 12.3652 4.38685 12.3498C4.30957 12.3343 4.23609 12.3038 4.1706 12.26C4.10512 12.2162 4.0489 12.1599 4.00517 12.0943C3.96144 12.0287 3.93105 11.9552 3.91574 11.8779C3.90042 11.8006 3.90048 11.7211 3.91592 11.6438C3.93135 11.5665 3.96185 11.493 4.00568 11.4275C4.04952 11.362 4.10582 11.3058 4.17137 11.2621L7.77137 8.86211Z" fill="#2F2F2F"/>
<path d="M1.60958 8.49368C1.56314 8.42819 1.53033 8.35406 1.51306 8.27566C1.4958 8.19727 1.49444 8.1162 1.50907 8.03727C1.5237 7.95834 1.55402 7.88315 1.59824 7.81615C1.64245 7.74915 1.69966 7.69171 1.76648 7.64722C1.8333 7.60273 1.90836 7.57209 1.98723 7.55714C2.0661 7.54218 2.14717 7.5432 2.22563 7.56014C2.3041 7.57708 2.37837 7.60959 2.44404 7.65575C2.50972 7.70191 2.56546 7.76078 2.60798 7.82888L5.00798 11.4289C5.09064 11.5613 5.11845 11.7207 5.08551 11.8732C5.05258 12.0258 4.96148 12.1595 4.83157 12.246C4.70165 12.3326 4.54314 12.365 4.38967 12.3366C4.2362 12.3081 4.09986 12.221 4.00958 12.0937L1.60958 8.49368Z" fill="#2F2F2F"/>
</svg>
