<svg width="32" height="33" viewBox="0 0 32 33" fill="none" xmlns="http://www.w3.org/2000/svg">
<path d="M24.8889 23.4C25.1721 23.4003 25.4445 23.5088 25.6504 23.7032C25.8563 23.8976 25.9803 24.1633 25.9969 24.446C26.0135 24.7287 25.9215 25.0071 25.7397 25.2243C25.5579 25.4414 25.3001 25.581 25.0189 25.6145L24.8889 25.6222H7.11111C6.82791 25.6219 6.55552 25.5135 6.34959 25.3191C6.14366 25.1247 6.01974 24.8589 6.00314 24.5762C5.98655 24.2935 6.07853 24.0151 6.26029 23.798C6.44206 23.5808 6.69989 23.4412 6.98111 23.4078L7.11111 23.4H24.8889ZM24.8889 15.6222C25.1836 15.6222 25.4662 15.7393 25.6746 15.9477C25.8829 16.156 26 16.4387 26 16.7333C26 17.028 25.8829 17.3106 25.6746 17.519C25.4662 17.7274 25.1836 17.8445 24.8889 17.8445H7.11111C6.81643 17.8445 6.53381 17.7274 6.32544 17.519C6.11706 17.3106 6 17.028 6 16.7333C6 16.4387 6.11706 16.156 6.32544 15.9477C6.53381 15.7393 6.81643 15.6222 7.11111 15.6222H24.8889ZM24.8889 7.84445C25.1836 7.84445 25.4662 7.96152 25.6746 8.16989C25.8829 8.37826 26 8.66088 26 8.95556C26 9.25025 25.8829 9.53286 25.6746 9.74124C25.4662 9.94961 25.1836 10.0667 24.8889 10.0667H7.11111C6.81643 10.0667 6.53381 9.94961 6.32544 9.74124C6.11706 9.53286 6 9.25025 6 8.95556C6 8.66088 6.11706 8.37826 6.32544 8.16989C6.53381 7.96152 6.81643 7.84445 7.11111 7.84445H24.8889Z" fill="#2F2F2F"/>
</svg>
