<svg width="20" height="21" viewBox="0 0 20 21" fill="none" xmlns="http://www.w3.org/2000/svg">
<path d="M17 2.66989H15V1.66989C15 1.40467 14.8946 1.15032 14.7071 0.962785C14.5196 0.775248 14.2652 0.669891 14 0.669891C13.7348 0.669891 13.4804 0.775248 13.2929 0.962785C13.1054 1.15032 13 1.40467 13 1.66989V2.66989H7V1.66989C7 1.40467 6.89464 1.15032 6.70711 0.962785C6.51957 0.775248 6.26522 0.669891 6 0.669891C5.73478 0.669891 5.48043 0.775248 5.29289 0.962785C5.10536 1.15032 5 1.40467 5 1.66989V2.66989H3C2.20435 2.66989 1.44129 2.98596 0.87868 3.54857C0.316071 4.11118 0 4.87424 0 5.66989V17.6699C0 18.4655 0.316071 19.2286 0.87868 19.7912C1.44129 20.3538 2.20435 20.6699 3 20.6699H17C17.7956 20.6699 18.5587 20.3538 19.1213 19.7912C19.6839 19.2286 20 18.4655 20 17.6699V5.66989C20 4.87424 19.6839 4.11118 19.1213 3.54857C18.5587 2.98596 17.7956 2.66989 17 2.66989ZM18 17.6699C18 17.9351 17.8946 18.1895 17.7071 18.377C17.5196 18.5645 17.2652 18.6699 17 18.6699H3C2.73478 18.6699 2.48043 18.5645 2.29289 18.377C2.10536 18.1895 2 17.9351 2 17.6699V10.6699H18V17.6699ZM18 8.66989H2V5.66989C2 5.40468 2.10536 5.15032 2.29289 4.96278C2.48043 4.77525 2.73478 4.66989 3 4.66989H5V5.66989C5 5.93511 5.10536 6.18946 5.29289 6.377C5.48043 6.56453 5.73478 6.66989 6 6.66989C6.26522 6.66989 6.51957 6.56453 6.70711 6.377C6.89464 6.18946 7 5.93511 7 5.66989V4.66989H13V5.66989C13 5.93511 13.1054 6.18946 13.2929 6.377C13.4804 6.56453 13.7348 6.66989 14 6.66989C14.2652 6.66989 14.5196 6.56453 14.7071 6.377C14.8946 6.18946 15 5.93511 15 5.66989V4.66989H17C17.2652 4.66989 17.5196 4.77525 17.7071 4.96278C17.8946 5.15032 18 5.40468 18 5.66989V8.66989Z" fill="#2F2F2F"/>
</svg>
