<svg width="16" height="16" viewBox="0 0 16 16" fill="none" xmlns="http://www.w3.org/2000/svg">
<rect x="-0.5" y="0.5" width="15" height="15" rx="7.5" transform="matrix(1 0 0 -1 1 16)" stroke="#6F6F6F"/>
<mask id="path-2-inside-1_328_2" fill="white">
<path d="M7.99961 5.6177L11.3576 9.0127C11.3846 9.04066 11.4168 9.06275 11.4521 9.07772C11.4874 9.09268 11.5253 9.10022 11.5634 9.09989C11.6016 9.09956 11.6393 9.09137 11.6744 9.0758C11.7095 9.06023 11.7412 9.03758 11.7679 9.00916C11.7945 8.98075 11.8154 8.94713 11.8294 8.91026C11.8434 8.87339 11.8503 8.83399 11.8496 8.79435C11.8488 8.75471 11.8405 8.71562 11.8252 8.67933C11.8098 8.64304 11.7877 8.61027 11.76 8.58293L8.20085 4.98483C8.14697 4.93037 8.07477 4.8999 7.99961 4.8999C7.92444 4.8999 7.85225 4.93037 7.79837 4.98483L4.23917 8.58293C4.21154 8.61027 4.1894 8.64304 4.17404 8.67933C4.15867 8.71562 4.15039 8.75471 4.14966 8.79435C4.14894 8.83399 4.15578 8.87339 4.16981 8.91026C4.18383 8.94713 4.20475 8.98075 4.23136 9.00916C4.25797 9.03758 4.28974 9.06023 4.32483 9.0758C4.35992 9.09137 4.39764 9.09956 4.4358 9.09989C4.47395 9.10022 4.51179 9.09268 4.54713 9.07772C4.58246 9.06275 4.61459 9.04066 4.64165 9.0127L7.99961 5.6177Z"/>
</mask>
<path d="M7.99961 5.6177L8.71059 4.91448L7.99961 4.19566L7.28863 4.91448L7.99961 5.6177ZM11.3576 9.0127L12.0761 8.3171L12.0685 8.30949L11.3576 9.0127ZM11.8294 8.91026L10.8947 8.55476L11.8294 8.91026ZM11.76 8.58293L11.0491 9.28622L11.0567 9.29376L11.76 8.58293ZM8.20085 4.98483L8.91179 4.28158L8.91177 4.28156L8.20085 4.98483ZM7.79837 4.98483L7.08745 4.28156L7.08743 4.28158L7.79837 4.98483ZM4.23917 8.58293L4.94258 9.2938L4.95011 9.28618L4.23917 8.58293ZM4.16981 8.91026L5.10448 8.55476L4.16981 8.91026ZM4.64165 9.0127L3.93064 8.30945L3.92319 8.31714L4.64165 9.0127ZM7.28863 6.32092L10.6466 9.71592L12.0685 8.30949L8.71059 4.91448L7.28863 6.32092ZM10.6391 9.70827C10.7581 9.8312 10.9015 9.93053 11.0621 9.99853L11.8421 8.1569C11.932 8.19498 12.0111 8.25011 12.076 8.31714L10.6391 9.70827ZM11.0621 9.99853C11.2227 10.0666 11.3962 10.1014 11.5721 10.0999L11.5548 8.09993C11.6543 8.09907 11.7521 8.11879 11.8421 8.1569L11.0621 9.99853ZM11.5721 10.0999C11.7479 10.0983 11.9207 10.0606 12.08 9.98983L11.2687 8.16177C11.3579 8.12219 11.4553 8.10079 11.5548 8.09993L11.5721 10.0999ZM12.08 9.98983C12.2393 9.91914 12.3809 9.81748 12.4978 9.69271L11.038 8.32561C11.1016 8.25767 11.1796 8.20131 11.2687 8.16177L12.08 9.98983ZM12.4978 9.69271C12.6145 9.56802 12.7044 9.4226 12.7641 9.26576L10.8947 8.55476C10.9263 8.47166 10.9744 8.39347 11.038 8.32561L12.4978 9.69271ZM12.7641 9.26576C12.8237 9.10897 12.8524 8.94264 12.8494 8.77603L10.8497 8.81267C10.8481 8.72535 10.8631 8.63781 10.8947 8.55476L12.7641 9.26576ZM12.8494 8.77603C12.8463 8.60942 12.8115 8.44413 12.746 8.28945L10.9043 9.0692C10.8696 8.9871 10.8513 8.90001 10.8497 8.81267L12.8494 8.77603ZM12.746 8.28945C12.6805 8.13471 12.5851 7.9925 12.4634 7.8721L11.0567 9.29376C10.9903 9.22805 10.9391 9.15137 10.9043 9.0692L12.746 8.28945ZM12.471 7.87968L8.91179 4.28158L7.48991 5.68809L11.0491 9.28618L12.471 7.87968ZM8.91177 4.28156C8.6741 4.04131 8.34756 3.8999 7.99961 3.8999L7.99961 5.8999C7.80199 5.8999 7.61985 5.81944 7.48993 5.68811L8.91177 4.28156ZM7.99961 3.8999C7.65166 3.8999 7.32512 4.04131 7.08745 4.28156L8.50929 5.68811C8.37937 5.81944 8.19723 5.8999 7.99961 5.8999L7.99961 3.8999ZM7.08743 4.28158L3.52823 7.87968L4.95011 9.28618L8.50931 5.68809L7.08743 4.28158ZM3.53581 7.8721C3.41412 7.99251 3.31868 8.13472 3.25317 8.28945L5.09491 9.0692C5.06012 9.15136 5.00896 9.22804 4.94254 9.29376L3.53581 7.8721ZM3.25317 8.28945C3.18768 8.44413 3.15288 8.60942 3.14983 8.77603L5.14949 8.81267C5.14789 8.90001 5.12966 8.9871 5.09491 9.0692L3.25317 8.28945ZM3.14983 8.77603C3.14678 8.94264 3.1755 9.10897 3.23513 9.26576L5.10448 8.55476C5.13607 8.63781 5.15109 8.72534 5.14949 8.81267L3.14983 8.77603ZM3.23513 9.26576C3.29478 9.42259 3.38468 9.56802 3.50146 9.69271L4.96127 8.32561C5.02482 8.39348 5.07288 8.47167 5.10448 8.55476L3.23513 9.26576ZM3.50146 9.69271C3.61831 9.81749 3.75992 9.91914 3.91918 9.98983L4.73049 8.16177C4.81957 8.20131 4.89763 8.25767 4.96127 8.32561L3.50146 9.69271ZM3.91918 9.98983C4.07855 10.0606 4.25132 10.0983 4.42716 10.0999L4.44443 8.09993C4.54396 8.10079 4.6413 8.12219 4.73049 8.16177L3.91918 9.98983ZM4.42716 10.0999C4.60302 10.1014 4.77647 10.0666 4.93713 9.99853L4.15713 8.1569C4.24711 8.11879 4.34489 8.09907 4.44443 8.09993L4.42716 10.0999ZM4.93713 9.99853C5.09769 9.93053 5.2411 9.8312 5.36011 9.70827L3.92319 8.31714C3.98808 8.25011 4.06724 8.19498 4.15713 8.1569L4.93713 9.99853ZM5.35263 9.71592L8.71058 6.32092L7.28863 4.91448L3.93068 8.30949L5.35263 9.71592Z" fill="#6F6F6F" mask="url(#path-2-inside-1_328_2)"/>
</svg>
