<svg width="16" height="16" viewBox="0 0 16 16" fill="none" xmlns="http://www.w3.org/2000/svg">
<rect x="0.5" y="0.5" width="15" height="15" rx="7.5" stroke="#6F6F6F"/>
<mask id="path-2-inside-1_328_2" fill="white">
<path d="M7.99961 10.3823L11.3576 6.9873C11.3846 6.95934 11.4168 6.93725 11.4521 6.92228C11.4874 6.90732 11.5253 6.89978 11.5634 6.90011C11.6016 6.90044 11.6393 6.90863 11.6744 6.9242C11.7095 6.93977 11.7412 6.96242 11.7679 6.99084C11.7945 7.01925 11.8154 7.05287 11.8294 7.08974C11.8434 7.12661 11.8503 7.16601 11.8496 7.20565C11.8488 7.24529 11.8405 7.28438 11.8252 7.32067C11.8098 7.35696 11.7877 7.38973 11.76 7.41707L8.20085 11.0152C8.14697 11.0696 8.07477 11.1001 7.99961 11.1001C7.92444 11.1001 7.85225 11.0696 7.79837 11.0152L4.23917 7.41707C4.21154 7.38973 4.1894 7.35696 4.17404 7.32067C4.15867 7.28438 4.15039 7.24529 4.14966 7.20565C4.14894 7.16601 4.15578 7.12661 4.16981 7.08974C4.18383 7.05287 4.20475 7.01925 4.23136 6.99084C4.25797 6.96242 4.28974 6.93977 4.32483 6.9242C4.35992 6.90863 4.39764 6.90044 4.4358 6.90011C4.47395 6.89978 4.51179 6.90732 4.54713 6.92228C4.58246 6.93725 4.61459 6.95934 4.64165 6.9873L7.99961 10.3823Z"/>
</mask>
<path d="M7.99961 10.3823L8.71059 11.0855L7.99961 11.8043L7.28863 11.0855L7.99961 10.3823ZM11.3576 6.9873L12.0761 7.6829L12.0685 7.69051L11.3576 6.9873ZM11.8294 7.08974L10.8947 7.44524L11.8294 7.08974ZM11.76 7.41707L11.0491 6.71378L11.0567 6.70624L11.76 7.41707ZM8.20085 11.0152L8.91179 11.7184L8.91177 11.7184L8.20085 11.0152ZM7.79837 11.0152L7.08745 11.7184L7.08743 11.7184L7.79837 11.0152ZM4.23917 7.41707L4.94258 6.7062L4.95011 6.71382L4.23917 7.41707ZM4.16981 7.08974L5.10448 7.44524L4.16981 7.08974ZM4.64165 6.9873L3.93064 7.69055L3.92319 7.68286L4.64165 6.9873ZM7.28863 9.67908L10.6466 6.28408L12.0685 7.69051L8.71059 11.0855L7.28863 9.67908ZM10.6391 6.29173C10.7581 6.1688 10.9015 6.06947 11.0621 6.00147L11.8421 7.8431C11.932 7.80502 12.0111 7.74989 12.076 7.68286L10.6391 6.29173ZM11.0621 6.00147C11.2227 5.93342 11.3962 5.89863 11.5721 5.90015L11.5548 7.90007C11.6543 7.90093 11.7521 7.88121 11.8421 7.8431L11.0621 6.00147ZM11.5721 5.90015C11.7479 5.90166 11.9207 5.93944 12.08 6.01017L11.2687 7.83823C11.3579 7.87781 11.4553 7.89921 11.5548 7.90007L11.5721 5.90015ZM12.08 6.01017C12.2393 6.08086 12.3809 6.18252 12.4978 6.30729L11.038 7.67439C11.1016 7.74233 11.1796 7.79869 11.2687 7.83823L12.08 6.01017ZM12.4978 6.30729C12.6145 6.43198 12.7044 6.5774 12.7641 6.73424L10.8947 7.44524C10.9263 7.52834 10.9744 7.60653 11.038 7.67439L12.4978 6.30729ZM12.7641 6.73424C12.8237 6.89103 12.8524 7.05736 12.8494 7.22397L10.8497 7.18733C10.8481 7.27465 10.8631 7.36219 10.8947 7.44524L12.7641 6.73424ZM12.8494 7.22397C12.8463 7.39058 12.8115 7.55587 12.746 7.71055L10.9043 6.9308C10.8696 7.0129 10.8513 7.09999 10.8497 7.18733L12.8494 7.22397ZM12.746 7.71055C12.6805 7.86529 12.5851 8.0075 12.4634 8.1279L11.0567 6.70624C10.9903 6.77195 10.9391 6.84863 10.9043 6.9308L12.746 7.71055ZM12.471 8.12032L8.91179 11.7184L7.48991 10.3119L11.0491 6.71382L12.471 8.12032ZM8.91177 11.7184C8.6741 11.9587 8.34756 12.1001 7.99961 12.1001L7.99961 10.1001C7.80199 10.1001 7.61985 10.1806 7.48993 10.3119L8.91177 11.7184ZM7.99961 12.1001C7.65166 12.1001 7.32512 11.9587 7.08745 11.7184L8.50929 10.3119C8.37937 10.1806 8.19723 10.1001 7.99961 10.1001L7.99961 12.1001ZM7.08743 11.7184L3.52823 8.12032L4.95011 6.71382L8.50931 10.3119L7.08743 11.7184ZM3.53581 8.1279C3.41412 8.00749 3.31868 7.86528 3.25317 7.71055L5.09491 6.9308C5.06012 6.84864 5.00896 6.77196 4.94254 6.70624L3.53581 8.1279ZM3.25317 7.71055C3.18768 7.55587 3.15288 7.39058 3.14983 7.22397L5.14949 7.18733C5.14789 7.09999 5.12966 7.0129 5.09491 6.9308L3.25317 7.71055ZM3.14983 7.22397C3.14678 7.05736 3.1755 6.89103 3.23513 6.73424L5.10448 7.44524C5.13607 7.36219 5.15109 7.27466 5.14949 7.18733L3.14983 7.22397ZM3.23513 6.73424C3.29478 6.57741 3.38468 6.43198 3.50146 6.30729L4.96127 7.67439C5.02482 7.60652 5.07288 7.52833 5.10448 7.44524L3.23513 6.73424ZM3.50146 6.30729C3.61831 6.18251 3.75992 6.08086 3.91918 6.01017L4.73049 7.83823C4.81957 7.79869 4.89763 7.74233 4.96127 7.67439L3.50146 6.30729ZM3.91918 6.01017C4.07855 5.93944 4.25132 5.90166 4.42716 5.90015L4.44443 7.90007C4.54396 7.89921 4.6413 7.87781 4.73049 7.83823L3.91918 6.01017ZM4.42716 5.90015C4.60302 5.89863 4.77647 5.93342 4.93713 6.00147L4.15713 7.8431C4.24711 7.88121 4.34489 7.90093 4.44443 7.90007L4.42716 5.90015ZM4.93713 6.00147C5.09769 6.06947 5.2411 6.1688 5.36011 6.29173L3.92319 7.68286C3.98808 7.74989 4.06724 7.80502 4.15713 7.8431L4.93713 6.00147ZM5.35263 6.28408L8.71058 9.67908L7.28863 11.0855L3.93068 7.69051L5.35263 6.28408Z" fill="#6F6F6F" mask="url(#path-2-inside-1_328_2)"/>
</svg>
