<svg width="20" height="18" viewBox="0 0 20 18" fill="none" xmlns="http://www.w3.org/2000/svg">
<path d="M19 11.89L13.09 2.04C12.31 0.74 11.13 0 9.83 0C8.53 0 7.35 0.74 6.57 2.03L0.66 11.89C0.22 12.62 0 13.38 0 14.1C0 14.67 0.14 15.23 0.42 15.72C1.06 16.84 2.3 17.49 3.83 17.49H15.83C17.36 17.49 18.6 16.84 19.24 15.72C19.52 15.23 19.66 14.7 19.66 14.14C19.67 13.4 19.45 12.63 19 11.89ZM9.83 4.94C10.68 4.94 11.38 5.64 11.38 6.49C11.38 7.34 10.69 8.04 9.83 8.04C8.98 8.04 8.28 7.34 8.28 6.49C8.28 5.63 8.97 4.94 9.83 4.94ZM11.52 13.4C11.49 13.44 10.72 14.32 9.45 14.32H9.3C8.79 14.29 8.37 14.07 8.12 13.69C7.81 13.22 7.76 12.58 8 11.87L8.41 10.65C8.64 9.97 8.42 9.86 8.3 9.8L8.16 9.78C7.91 9.78 7.56 9.93 7.45 9.99C7.35 10.04 7.22 10.02 7.14 9.92C7.07 9.82 7.07 9.69 7.15 9.6C7.18 9.56 8.02 8.61 9.37 8.69C9.88 8.72 10.3 8.94 10.55 9.32C10.87 9.79 10.91 10.43 10.67 11.15L10.26 12.37C10.03 13.05 10.25 13.16 10.37 13.22L10.51 13.24C10.76 13.24 11.11 13.09 11.22 13.04C11.33 12.98 11.45 13.01 11.53 13.11C11.6 13.18 11.6 13.31 11.52 13.4Z" fill="#FF4B77"/>
</svg>
