<svg width="26" height="26" viewBox="0 0 26 26" fill="none" xmlns="http://www.w3.org/2000/svg">
<path d="M13.0007 0C5.8178 0 4.83358e-06 5.96479 4.83358e-06 13.3291C-0.00234912 16.1273 0.855131 18.8552 2.4507 21.1254C4.04626 23.3955 6.29882 25.0927 8.88855 25.9758C9.53858 26.0918 9.78299 25.6919 9.78299 25.3414C9.78299 25.0255 9.76609 23.9765 9.76609 22.8595C6.50033 23.4766 5.65529 22.0437 5.39527 21.2933C5.24837 20.9094 4.61524 19.7271 4.06271 19.4099C3.60768 19.1606 2.95765 18.5435 4.04581 18.5275C5.07026 18.5102 5.80089 19.4939 6.04531 19.8937C7.21536 21.9091 9.08356 21.3426 9.8311 20.9934C9.9455 20.127 10.2861 19.5445 10.6605 19.2113C7.76789 18.8781 4.74524 17.7278 4.74524 12.6294C4.74524 11.1792 5.24837 9.98086 6.07781 9.04782C5.9478 8.7146 5.49278 7.34836 6.20781 5.5156C6.20781 5.5156 7.29597 5.16504 9.78299 6.8805C10.8415 6.58012 11.9349 6.429 13.0332 6.43131C14.1382 6.43131 15.2433 6.5806 16.2833 6.8805C18.7703 5.14772 19.8585 5.5156 19.8585 5.5156C20.5735 7.34836 20.1185 8.7146 19.9885 9.04782C20.8166 9.98086 21.3211 11.1632 21.3211 12.6294C21.3211 17.7451 18.2828 18.8781 15.3902 19.2113C15.8608 19.6272 16.2677 20.4269 16.2677 21.6772C16.2677 23.4593 16.2508 24.8922 16.2508 25.3427C16.2508 25.6919 16.4952 26.1078 17.1453 25.9745C19.7253 25.0803 21.967 23.3794 23.5553 21.1112C25.1436 18.843 25.9986 16.1214 26 13.3291C26 5.96479 20.1822 0 12.9994 0" fill="white"/>
</svg>
