<svg width="24" height="24" viewBox="0 0 24 24" fill="none" xmlns="http://www.w3.org/2000/svg">
<path d="M12.0006 0C5.37027 0 4.46177e-06 5.50596 4.46177e-06 12.3038C-0.00216841 14.8868 0.789351 17.4048 2.26218 19.5003C3.73501 21.5959 5.8143 23.1625 8.20481 23.9777C8.80484 24.0847 9.03045 23.7156 9.03045 23.392C9.03045 23.1004 9.01485 22.1321 9.01485 21.1011C6.0003 21.6707 5.22026 20.3481 4.98025 19.6554C4.84465 19.301 4.26022 18.2097 3.75019 17.9168C3.33017 17.6868 2.73014 17.1171 3.73459 17.1023C4.68024 17.0863 5.35467 17.9943 5.58028 18.3635C6.66034 20.2238 8.38482 19.7009 9.07486 19.3785C9.18046 18.5788 9.49488 18.0411 9.84049 17.7335C7.17036 17.4259 4.38022 16.3641 4.38022 11.6579C4.38022 10.3192 4.84465 9.21311 5.61028 8.35184C5.49028 8.04424 5.07026 6.7831 5.73029 5.09132C5.73029 5.09132 6.73474 4.76773 9.03045 6.35124C10.0075 6.07396 11.0168 5.93446 12.0306 5.9366C13.0507 5.9366 14.0707 6.0744 15.0308 6.35124C17.3265 4.75174 18.3309 5.09132 18.3309 5.09132C18.9909 6.7831 18.5709 8.04424 18.4509 8.35184C19.2154 9.21311 19.681 10.3045 19.681 11.6579C19.681 16.3801 16.8764 17.4259 14.2063 17.7335C14.6407 18.1174 15.0164 18.8556 15.0164 20.0097C15.0164 21.6547 15.0008 22.9774 15.0008 23.3933C15.0008 23.7156 15.2264 24.0995 15.8264 23.9765C18.2079 23.151 20.2772 21.581 21.7434 19.4873C23.2095 17.3935 23.9987 14.8813 24 12.3038C24 5.50596 18.6297 0 11.9994 0" fill="black"/>
</svg>
