<svg width="24" height="24" viewBox="0 0 24 24" fill="none" xmlns="http://www.w3.org/2000/svg">
<path d="M11.0549 19.3003L11.0538 19.2994C8.46406 16.951 6.37492 15.0524 4.92445 13.2778C3.48222 11.5133 2.75 9.96338 2.75 8.32495C2.75 5.65006 4.83332 3.57495 7.5 3.57495C9.01327 3.57495 10.4781 4.28329 11.4309 5.39341L12 6.05652L12.5691 5.39341C13.5219 4.28329 14.9867 3.57495 16.5 3.57495C19.1667 3.57495 21.25 5.65006 21.25 8.32495C21.25 9.96338 20.5178 11.5133 19.0756 13.2778C17.6251 15.0524 15.5359 16.951 12.9462 19.2994L12.9451 19.3003L12 20.1607L11.0549 19.3003Z" stroke="#CBCBCB" stroke-width="1.5"/>
</svg>
