<svg width="32" height="32" viewBox="0 0 32 32" fill="none" xmlns="http://www.w3.org/2000/svg">
<path d="M26 24.5938V13.9688C26 13.7747 25.9548 13.5833 25.868 13.4097C25.7812 13.2362 25.6552 13.0852 25.5 12.9687L16.75 6.40625C16.5336 6.24397 16.2705 6.15625 16 6.15625C15.7295 6.15625 15.4664 6.24397 15.25 6.40625L6.5 12.9687C6.34476 13.0852 6.21875 13.2362 6.13197 13.4097C6.04518 13.5833 6 13.7747 6 13.9688V24.5938C6 24.9253 6.1317 25.2432 6.36612 25.4776C6.60054 25.7121 6.91848 25.8438 7.25 25.8438H12.25C12.5815 25.8438 12.8995 25.7121 13.1339 25.4776C13.3683 25.2432 13.5 24.9253 13.5 24.5938V20.8438C13.5 20.5122 13.6317 20.1943 13.8661 19.9599C14.1005 19.7254 14.4185 19.5938 14.75 19.5938H17.25C17.5815 19.5938 17.8995 19.7254 18.1339 19.9599C18.3683 20.1943 18.5 20.5122 18.5 20.8438V24.5938C18.5 24.9253 18.6317 25.2432 18.8661 25.4776C19.1005 25.7121 19.4185 25.8438 19.75 25.8438H24.75C25.0815 25.8438 25.3995 25.7121 25.6339 25.4776C25.8683 25.2432 26 24.9253 26 24.5938Z" stroke="#2F2F2F" stroke-width="1.8" stroke-linecap="round" stroke-linejoin="round"/>
</svg>
