<svg width="20" height="20" viewBox="0 0 20 20" fill="none" xmlns="http://www.w3.org/2000/svg">
<path d="M9.85801 7.08301L12.4997 9.71634V9.58301C12.4997 8.91997 12.2363 8.28408 11.7674 7.81524C11.2986 7.3464 10.6627 7.08301 9.99967 7.08301H9.85801ZM6.27467 7.74967L7.56634 9.04134C7.52467 9.21634 7.49967 9.39134 7.49967 9.58301C7.49967 10.246 7.76307 10.8819 8.23191 11.3508C8.70075 11.8196 9.33663 12.083 9.99967 12.083C10.183 12.083 10.3663 12.058 10.5413 12.0163L11.833 13.308C11.2747 13.583 10.658 13.7497 9.99967 13.7497C8.89461 13.7497 7.8348 13.3107 7.0534 12.5293C6.272 11.7479 5.83301 10.6881 5.83301 9.58301C5.83301 8.92467 5.99967 8.30801 6.27467 7.74967ZM1.66634 3.14134L3.56634 5.04134L3.94134 5.41634C2.56634 6.49967 1.48301 7.91634 0.833008 9.58301C2.27467 13.2413 5.83301 15.833 9.99967 15.833C11.2913 15.833 12.5247 15.583 13.6497 15.133L14.008 15.483L16.4413 17.9163L17.4997 16.858L2.72467 2.08301M9.99967 5.41634C11.1047 5.41634 12.1646 5.85533 12.946 6.63673C13.7274 7.41813 14.1663 8.47794 14.1663 9.58301C14.1663 10.1163 14.058 10.633 13.8663 11.0997L16.308 13.5413C17.558 12.4997 18.558 11.133 19.1663 9.58301C17.7247 5.92467 14.1663 3.33301 9.99967 3.33301C8.83301 3.33301 7.71634 3.54134 6.66634 3.91634L8.47467 5.70801C8.94967 5.52467 9.45801 5.41634 9.99967 5.41634Z" fill="#AFAFAF"/>
</svg>
