<svg width="31" height="29" viewBox="0 0 31 29" fill="none" xmlns="http://www.w3.org/2000/svg">
<path d="M15.4985 0C24.0604 0 31 5.50581 31 12.2994C31 19.0915 24.0604 24.5973 15.5 24.5973C14.6477 24.5958 13.7963 24.5406 12.9506 24.432L6.44357 28.7642C5.704 29.1624 5.44271 29.1189 5.74681 28.1436L7.06357 22.6168C2.81214 20.4229 0 16.6211 0 12.2994C0 5.50731 6.93809 0 15.5 0M24.2213 12.1116L26.3913 9.97176C26.5165 9.83938 26.5864 9.66271 26.5862 9.47895C26.586 9.29518 26.5157 9.11868 26.3902 8.98662C26.2646 8.85455 26.0937 8.77724 25.9132 8.77095C25.7328 8.76467 25.5571 8.82992 25.423 8.95294L22.5769 11.7569V9.43981C22.5769 9.2517 22.5034 9.0713 22.3728 8.93828C22.2421 8.80527 22.0649 8.73055 21.8801 8.73055C21.6953 8.73055 21.5181 8.80527 21.3874 8.93828C21.2567 9.0713 21.1833 9.2517 21.1833 9.43981V13.2822C21.1588 13.3919 21.1588 13.506 21.1833 13.6157V15.7781C21.1833 15.9662 21.2567 16.1466 21.3874 16.2796C21.5181 16.4126 21.6953 16.4874 21.8801 16.4874C22.0649 16.4874 22.2421 16.4126 22.3728 16.2796C22.5034 16.1466 22.5769 15.9662 22.5769 15.7781V13.7299L23.2072 13.1093L25.3152 16.1643C25.3678 16.2406 25.4347 16.3055 25.512 16.3555C25.5893 16.4054 25.6755 16.4394 25.7657 16.4555C25.8559 16.4715 25.9483 16.4693 26.0377 16.449C26.127 16.4287 26.2116 16.3907 26.2865 16.3371C26.3615 16.2835 26.4253 16.2154 26.4744 16.1368C26.5234 16.0581 26.5568 15.9703 26.5726 15.8785C26.5883 15.7867 26.5862 15.6926 26.5662 15.6016C26.5463 15.5107 26.5089 15.4246 26.4563 15.3483L24.2213 12.1116ZM19.8548 15.0027H17.6995V9.46235C17.6913 9.28008 17.6143 9.10807 17.4847 8.98205C17.3551 8.85604 17.1827 8.78572 17.0035 8.78572C16.8243 8.78572 16.6519 8.85604 16.5223 8.98205C16.3927 9.10807 16.3157 9.28008 16.3075 9.46235V15.712C16.3075 16.1027 16.6175 16.4212 17.0028 16.4212H19.8548C20.0396 16.4212 20.2168 16.3465 20.3474 16.2135C20.4781 16.0805 20.5515 15.9001 20.5515 15.712C20.5515 15.5239 20.4781 15.3435 20.3474 15.2105C20.2168 15.0774 20.0396 15.0027 19.8548 15.0027ZM11.2087 13.3633L12.2361 10.7967L13.178 13.3618L11.2087 13.3633ZM14.9331 14.0951L14.9361 14.0711C14.9356 13.8924 14.8686 13.7206 14.7486 13.5902L13.2045 9.38271C13.1398 9.1822 13.0165 9.00658 12.8511 8.8793C12.6857 8.75203 12.4861 8.67916 12.279 8.67044C12.0705 8.67034 11.8668 8.73444 11.6948 8.85432C11.5227 8.9742 11.3904 9.14425 11.315 9.34214L8.86157 15.4655C8.79169 15.6397 8.79263 15.835 8.86419 16.0084C8.93576 16.1819 9.07208 16.3193 9.24317 16.3904C9.41426 16.4616 9.6061 16.4606 9.77649 16.3878C9.94689 16.3149 10.0819 16.1762 10.1518 16.002L10.6419 14.7803H13.6976L14.1375 15.9825C14.1675 16.0723 14.2149 16.1551 14.2769 16.226C14.3389 16.2969 14.4143 16.3543 14.4985 16.395C14.5828 16.4357 14.6742 16.4587 14.7673 16.4628C14.8605 16.4669 14.9535 16.4518 15.0408 16.4186C15.1282 16.3855 15.2081 16.3348 15.2758 16.2696C15.3436 16.2044 15.3978 16.126 15.4352 16.0391C15.4727 15.9521 15.4926 15.8585 15.4939 15.7636C15.4951 15.6687 15.4776 15.5745 15.4424 15.4866L14.9331 14.0951ZM10.0278 9.46986C10.0282 9.37674 10.0104 9.28445 9.97566 9.19832C9.94087 9.11219 9.8897 9.03391 9.82508 8.96799C9.76045 8.90207 9.68366 8.8498 9.59912 8.81421C9.51458 8.77862 9.42396 8.7604 9.33248 8.7606H4.54224C4.35745 8.7606 4.18022 8.83533 4.04955 8.96834C3.91888 9.10135 3.84548 9.28175 3.84548 9.46986C3.84548 9.65797 3.91888 9.83838 4.04955 9.97139C4.18022 10.1044 4.35745 10.1791 4.54224 10.1791H6.25462V15.7931C6.25462 15.9812 6.32803 16.1616 6.4587 16.2946C6.58936 16.4277 6.76659 16.5024 6.95138 16.5024C7.13617 16.5024 7.3134 16.4277 7.44407 16.2946C7.57473 16.1616 7.64814 15.9812 7.64814 15.7931V10.1791H9.331C9.42261 10.1795 9.51339 10.1614 9.5981 10.1259C9.68281 10.0904 9.75978 10.0382 9.82456 9.97227C9.88933 9.90633 9.94064 9.82799 9.97552 9.74176C10.0104 9.65552 10.0282 9.56312 10.0278 9.46986Z" fill="#3C1E1E"/>
</svg>
