<svg width="20" height="21" viewBox="0 0 20 21" fill="none" xmlns="http://www.w3.org/2000/svg">
<path fill-rule="evenodd" clip-rule="evenodd" d="M10 0C12.3869 0 14.6761 0.940362 16.364 2.61422C18.0518 4.28807 19 6.55831 19 8.9255C19 11.9741 17.324 14.4692 15.558 16.2593C14.6757 17.144 13.7129 17.946 12.682 18.6553L12.256 18.9429L12.056 19.0748L11.679 19.3128L11.343 19.5161L10.927 19.7561C10.6446 19.9159 10.3251 20 10 20C9.67487 20 9.35537 19.9159 9.073 19.7561L8.657 19.5161L8.137 19.1987L7.945 19.0748L7.535 18.804C6.42283 18.0578 5.3869 17.2055 4.442 16.2593C2.676 14.4682 1 11.9741 1 8.9255C1 6.55831 1.94821 4.28807 3.63604 2.61422C5.32387 0.940362 7.61305 0 10 0ZM10 1.98344C8.14348 1.98344 6.36301 2.71484 5.05025 4.01672C3.7375 5.31861 3 7.08435 3 8.9255C3 11.2283 4.272 13.2494 5.871 14.8719C6.55853 15.5621 7.30166 16.1956 8.093 16.7661L8.551 17.0894C8.699 17.1918 8.84133 17.287 8.978 17.375L9.368 17.6229L9.711 17.8302L10 17.9978L10.455 17.731L10.822 17.5029C11.0173 17.3799 11.2263 17.2421 11.449 17.0894L11.907 16.7661C12.6983 16.1956 13.4415 15.5621 14.129 14.8719C15.728 13.2504 17 11.2283 17 8.9255C17 7.08435 16.2625 5.31861 14.9497 4.01672C13.637 2.71484 11.8565 1.98344 10 1.98344ZM10 4.95861C11.0609 4.95861 12.0783 5.37655 12.8284 6.12048C13.5786 6.86442 14 7.87341 14 8.9255C14 9.97758 13.5786 10.9866 12.8284 11.7305C12.0783 12.4744 11.0609 12.8924 10 12.8924C8.93913 12.8924 7.92172 12.4744 7.17157 11.7305C6.42143 10.9866 6 9.97758 6 8.9255C6 7.87341 6.42143 6.86442 7.17157 6.12048C7.92172 5.37655 8.93913 4.95861 10 4.95861ZM10 6.94205C9.46957 6.94205 8.96086 7.15102 8.58579 7.52299C8.21071 7.89496 8 8.39946 8 8.9255C8 9.45154 8.21071 9.95604 8.58579 10.328C8.96086 10.7 9.46957 10.9089 10 10.9089C10.5304 10.9089 11.0391 10.7 11.4142 10.328C11.7893 9.95604 12 9.45154 12 8.9255C12 8.39946 11.7893 7.89496 11.4142 7.52299C11.0391 7.15102 10.5304 6.94205 10 6.94205Z" fill="#2F2F2F"/>
</svg>
