<svg width="20" height="20" viewBox="0 0 20 20" fill="none" xmlns="http://www.w3.org/2000/svg">
<g clip-path="url(#clip0_132_2688)">
<path d="M18.7062 14.0663C18.7062 14.4545 18.5971 14.8143 18.4222 15.131L12.8316 8.87588L18.3615 4.03765C18.5767 4.37903 18.7062 4.78004 18.7062 5.21338V14.0663ZM9.85314 10.0116L17.5479 3.27887C17.2322 3.10601 16.8766 3 16.493 3H3.21327C2.82923 3 2.47354 3.10601 2.15905 3.27887L9.85314 10.0116ZM11.9984 9.6043L10.2173 11.1637C10.1131 11.2545 9.98335 11.2998 9.85314 11.2998C9.72287 11.2998 9.59314 11.2545 9.48895 11.1637L7.70742 9.60422L2.04611 15.9392C2.38545 16.1521 2.78314 16.2797 3.21323 16.2797H16.493C16.923 16.2797 17.3209 16.1521 17.6601 15.9392L11.9984 9.6043ZM1.34478 4.03761C1.12969 4.37899 1 4.78 1 5.21338V14.0664C1 14.4545 1.10867 14.8144 1.28424 15.131L6.87417 8.87482L1.34478 4.03761Z" fill="#CBCBCB"/>
</g>
<defs>
<clipPath id="clip0_132_2688">
<rect width="20" height="20" fill="white"/>
</clipPath>
</defs>
</svg>
