<svg width="20" height="20" viewBox="0 0 20 20" fill="none" xmlns="http://www.w3.org/2000/svg">
<path d="M10.8335 10.834C9.80225 10.834 8.91943 10.4668 8.18506 9.73242C7.45068 8.99805 7.0835 8.11523 7.0835 7.08398C7.0835 6.05273 7.45068 5.16992 8.18506 4.43555C8.91943 3.70117 9.80225 3.33398 10.8335 3.33398C11.8647 3.33398 12.7476 3.70117 13.4819 4.43555C14.2163 5.16992 14.5835 6.05273 14.5835 7.08398C14.5835 8.11523 14.2163 8.99805 13.4819 9.73242C12.7476 10.4668 11.8647 10.834 10.8335 10.834ZM3.3335 18.334V15.709C3.3335 15.1777 3.47037 14.6896 3.74412 14.2446C4.01787 13.7996 4.381 13.4596 4.8335 13.2246C5.80225 12.7402 6.78662 12.3771 7.78662 12.1352C8.78662 11.8934 9.80225 11.7721 10.8335 11.7715C11.8647 11.7709 12.8804 11.8921 13.8804 12.1352C14.8804 12.3784 15.8647 12.7415 16.8335 13.2246C17.2866 13.459 17.6501 13.799 17.9238 14.2446C18.1976 14.6902 18.3341 15.1784 18.3335 15.709V18.334H3.3335Z" fill="#CBCBCB"/>
</svg>
