<svg width="20" height="20" viewBox="0 0 20 20" fill="none" xmlns="http://www.w3.org/2000/svg">
<path d="M4.99992 18.75C4.54159 18.75 4.14936 18.5869 3.82325 18.2608C3.49714 17.9347 3.33381 17.5422 3.33325 17.0833V8.75C3.33325 8.29167 3.49659 7.89945 3.82325 7.57333C4.14992 7.24722 4.54214 7.08389 4.99992 7.08333H5.83325V5.41667C5.83325 4.26389 6.23964 3.28139 7.05242 2.46917C7.8652 1.65695 8.8477 1.25056 9.99992 1.25C11.1521 1.24945 12.1349 1.65583 12.9483 2.46917C13.7616 3.2825 14.1677 4.265 14.1666 5.41667V7.08333H14.9999C15.4583 7.08333 15.8508 7.24667 16.1774 7.57333C16.5041 7.9 16.6671 8.29222 16.6666 8.75V17.0833C16.6666 17.5417 16.5035 17.9342 16.1774 18.2608C15.8513 18.5875 15.4588 18.7506 14.9999 18.75H4.99992ZM9.99992 14.5833C10.4583 14.5833 10.8508 14.4203 11.1774 14.0942C11.5041 13.7681 11.6671 13.3756 11.6666 12.9167C11.666 12.4578 11.503 12.0656 11.1774 11.74C10.8519 11.4144 10.4594 11.2511 9.99992 11.25C9.54047 11.2489 9.14825 11.4122 8.82325 11.74C8.49825 12.0678 8.33492 12.46 8.33325 12.9167C8.33158 13.3733 8.49492 13.7658 8.82325 14.0942C9.15159 14.4225 9.54381 14.5856 9.99992 14.5833ZM7.49992 7.08333H12.4999V5.41667C12.4999 4.72222 12.2569 4.13195 11.7708 3.64583C11.2846 3.15972 10.6944 2.91667 9.99992 2.91667C9.30547 2.91667 8.7152 3.15972 8.22908 3.64583C7.74297 4.13195 7.49992 4.72222 7.49992 5.41667V7.08333Z" fill="#CBCBCB"/>
</svg>
