<svg width="19" height="19" viewBox="0 0 19 19" fill="none" xmlns="http://www.w3.org/2000/svg">
<path d="M9.33333 9.33333C8.05 9.33333 6.95139 8.87639 6.0375 7.9625C5.12361 7.04861 4.66667 5.95 4.66667 4.66667C4.66667 3.38333 5.12361 2.28472 6.0375 1.37083C6.95139 0.456945 8.05 0 9.33333 0C10.6167 0 11.7153 0.456945 12.6292 1.37083C13.5431 2.28472 14 3.38333 14 4.66667C14 5.95 13.5431 7.04861 12.6292 7.9625C11.7153 8.87639 10.6167 9.33333 9.33333 9.33333ZM0 18.6667V15.4C0 14.7389 0.170334 14.1314 0.511 13.5777C0.851667 13.0239 1.30356 12.6008 1.86667 12.3083C3.07222 11.7056 4.29722 11.2537 5.54167 10.9527C6.78611 10.6517 8.05 10.5008 9.33333 10.5C10.6167 10.4992 11.8806 10.6501 13.125 10.9527C14.3694 11.2552 15.5944 11.7071 16.8 12.3083C17.3639 12.6 17.8162 13.0231 18.1568 13.5777C18.4975 14.1322 18.6674 14.7397 18.6667 15.4V18.6667H0Z" fill="black"/>
</svg>
