<svg width="32" height="33" viewBox="0 0 32 33" fill="none" xmlns="http://www.w3.org/2000/svg">
<path d="M15.9996 5.10794C17.4376 5.1075 18.8379 5.56802 19.9949 6.42191C21.1519 7.27581 22.0047 8.4781 22.4282 9.85232C22.8517 11.2265 22.8235 12.7003 22.3477 14.0573C21.872 15.4144 20.9738 16.5832 19.785 17.3922C21.8485 18.149 23.6382 19.5061 24.9238 21.2887C26.2094 23.0714 26.9321 25.198 26.9988 27.3949C27.005 27.5168 26.9869 27.6388 26.9453 27.7536C26.9038 27.8684 26.8398 27.9738 26.757 28.0635C26.6742 28.1533 26.5743 28.2256 26.4632 28.2762C26.352 28.3268 26.2319 28.3547 26.1099 28.3583C25.9878 28.3619 25.8663 28.3411 25.7524 28.2971C25.6385 28.253 25.5346 28.1867 25.4467 28.102C25.3587 28.0173 25.2886 27.9158 25.2404 27.8036C25.1922 27.6915 25.1669 27.5708 25.166 27.4487C25.0932 25.0662 24.0956 22.8058 22.3846 21.1463C20.6737 19.4868 18.3838 18.5587 16.0002 18.5587C13.6167 18.5587 11.3268 19.4868 9.6158 21.1463C7.90483 22.8058 6.90724 25.0662 6.83443 27.4487C6.82713 27.6919 6.72352 27.9222 6.54639 28.089C6.36926 28.2559 6.13312 28.3455 5.88991 28.3382C5.6467 28.3309 5.41636 28.2273 5.24955 28.0501C5.08273 27.873 4.99312 27.6369 5.00041 27.3937C5.06735 25.197 5.79013 23.0706 7.07574 21.2882C8.36134 19.5058 10.1509 18.1489 12.2142 17.3922C11.0254 16.5832 10.1272 15.4144 9.65148 14.0573C9.17576 12.7003 9.14756 11.2265 9.57103 9.85232C9.9945 8.4781 10.8473 7.27581 12.0043 6.42191C13.1614 5.56802 14.5616 5.1075 15.9996 5.10794ZM11.1089 11.8327C11.1089 13.1298 11.6242 14.3737 12.5414 15.2909C13.4585 16.2081 14.7025 16.7234 15.9996 16.7234C17.2967 16.7234 18.5407 16.2081 19.4579 15.2909C20.375 14.3737 20.8903 13.1298 20.8903 11.8327C20.8903 10.5356 20.375 9.29159 19.4579 8.37441C18.5407 7.45722 17.2967 6.94196 15.9996 6.94196C14.7025 6.94196 13.4585 7.45722 12.5414 8.37441C11.6242 9.29159 11.1089 10.5356 11.1089 11.8327Z" fill="#2F2F2F"/>
</svg>
