<svg width="32" height="32" viewBox="0 0 32 32" fill="none" xmlns="http://www.w3.org/2000/svg">
<rect width="32" height="32" rx="16" fill="#FF4B77"/>
<path d="M15.9997 7.54541C17.0455 7.54509 18.0639 7.88002 18.9054 8.50103C19.7468 9.12204 20.3671 9.99643 20.675 10.9959C20.983 11.9953 20.9625 13.0671 20.6165 14.0541C20.2706 15.041 19.6173 15.891 18.7527 16.4794C20.2534 17.0298 21.5551 18.0168 22.49 19.3133C23.425 20.6097 23.9506 22.1564 23.9991 23.7541C24.0037 23.8428 23.9904 23.9315 23.9602 24.015C23.93 24.0985 23.8835 24.1751 23.8232 24.2404C23.763 24.3057 23.6904 24.3582 23.6096 24.395C23.5288 24.4319 23.4414 24.4522 23.3527 24.4548C23.2639 24.4574 23.1755 24.4422 23.0927 24.4102C23.0098 24.3782 22.9342 24.33 22.8703 24.2684C22.8064 24.2067 22.7554 24.133 22.7203 24.0514C22.6853 23.9698 22.6669 23.882 22.6662 23.7932C22.6132 22.0605 21.8877 20.4166 20.6434 19.2097C19.399 18.0028 17.7337 17.3278 16.0002 17.3278C14.2667 17.3278 12.6013 18.0028 11.3569 19.2097C10.1126 20.4166 9.38708 22.0605 9.33413 23.7932C9.32882 23.9701 9.25347 24.1376 9.12465 24.2589C8.99582 24.3803 8.82408 24.4454 8.64721 24.4401C8.47033 24.4348 8.30281 24.3595 8.18149 24.2306C8.06017 24.1018 7.99499 23.9301 8.0003 23.7532C8.04898 22.1556 8.57464 20.6092 9.50963 19.3129C10.4446 18.0166 11.7461 17.0298 13.2467 16.4794C12.3821 15.891 11.7289 15.041 11.3829 14.0541C11.0369 13.0671 11.0164 11.9953 11.3244 10.9959C11.6324 9.99643 12.2526 9.12204 13.0941 8.50103C13.9355 7.88002 14.9539 7.54509 15.9997 7.54541ZM12.4428 12.4361C12.4428 13.3795 12.8176 14.2842 13.4846 14.9512C14.1517 15.6183 15.0564 15.993 15.9997 15.993C16.9431 15.993 17.8478 15.6183 18.5148 14.9512C19.1819 14.2842 19.5566 13.3795 19.5566 12.4361C19.5566 11.4928 19.1819 10.5881 18.5148 9.92102C17.8478 9.25398 16.9431 8.87924 15.9997 8.87924C15.0564 8.87924 14.1517 9.25398 13.4846 9.92102C12.8176 10.5881 12.4428 11.4928 12.4428 12.4361Z" fill="white"/>
</svg>
