<svg width="20" height="21" viewBox="0 0 20 21" fill="none" xmlns="http://www.w3.org/2000/svg">
<path d="M18 5.63528V2.20835C18 1.80033 17.8127 1.40901 17.4793 1.1205C17.1459 0.831979 16.6937 0.669891 16.2222 0.669891H3.77778C3.30628 0.669891 2.8541 0.831979 2.5207 1.1205C2.1873 1.40901 2 1.80033 2 2.20835V5.66989C2.0006 5.90864 2.06512 6.14402 2.1885 6.35756C2.31188 6.5711 2.49076 6.757 2.71111 6.90066L8.51889 10.6699L2.71111 14.4391C2.49076 14.5828 2.31188 14.7687 2.1885 14.9822C2.06512 15.1958 2.0006 15.4311 2 15.6699V19.1314C2 19.5395 2.1873 19.9308 2.5207 20.2193C2.8541 20.5078 3.30628 20.6699 3.77778 20.6699H16.2222C16.6937 20.6699 17.1459 20.5078 17.4793 20.2193C17.8127 19.9308 18 19.5395 18 19.1314V15.7045C17.9994 15.4667 17.9354 15.2322 17.813 15.0192C17.6906 14.8063 17.5132 14.6206 17.2944 14.4766L11.4744 10.6699L17.2944 6.8622C17.5133 6.71853 17.6908 6.53305 17.8132 6.32023C17.9356 6.10741 17.9995 5.87299 18 5.63528ZM16.2222 19.1314H3.77778V15.6699L10 11.6314L16.2222 15.7035V19.1314ZM16.2222 5.63528L10 9.70835L3.77778 5.66989V2.20835H16.2222V5.63528Z" fill="#2F2F2F"/>
</svg>
