<svg width="32" height="33" viewBox="0 0 32 33" fill="none" xmlns="http://www.w3.org/2000/svg">
<path d="M20.9715 19.8233H19.984L19.634 19.4858C20.4152 18.5783 20.9861 17.5093 21.306 16.3553C21.6258 15.2014 21.6866 13.991 21.484 12.8108C20.8965 9.3358 17.9965 6.5608 14.4965 6.1358C13.266 5.98013 12.0163 6.10802 10.8428 6.50966C9.66935 6.91131 8.60333 7.57608 7.72632 8.45309C6.8493 9.33011 6.18453 10.3961 5.78289 11.5696C5.38124 12.743 5.25336 13.9928 5.40903 15.2233C5.83403 18.7233 8.60903 21.6233 12.084 22.2108C13.2642 22.4134 14.4746 22.3526 15.6285 22.0327C16.7825 21.7129 17.8515 21.142 18.759 20.3608L19.0965 20.7108V21.6983L24.409 27.0108C24.9215 27.5233 25.759 27.5233 26.2715 27.0108C26.784 26.4983 26.784 25.6608 26.2715 25.1483L20.9715 19.8233ZM13.4715 19.8233C10.359 19.8233 7.84653 17.3108 7.84653 14.1983C7.84653 11.0858 10.359 8.5733 13.4715 8.5733C16.584 8.5733 19.0965 11.0858 19.0965 14.1983C19.0965 17.3108 16.584 19.8233 13.4715 19.8233Z" fill="#FF4B77"/>
</svg>
