<svg width="80" height="24" viewBox="0 0 80 24" fill="none" xmlns="http://www.w3.org/2000/svg">
<path d="M7.99965 15.9097L10.9392 17.6876C11.4776 18.0134 12.1363 17.5318 11.9947 16.9226L11.2155 13.5793L13.8151 11.3268C14.2897 10.9159 14.0347 10.1368 13.4113 10.0872L9.99007 9.79675L8.65132 6.63759C8.41049 6.06384 7.58882 6.06384 7.34799 6.63759L6.00924 9.78967L2.58799 10.0801C1.96465 10.1297 1.70965 10.9088 2.18424 11.3197L4.78382 13.5722L4.00465 16.9155C3.86299 17.5247 4.52174 18.0063 5.06007 17.6805L7.99965 15.9097Z" fill="#FFCC00"/>
<path d="M23.9997 15.9097L26.9392 17.6876C27.4776 18.0134 28.1363 17.5318 27.9947 16.9226L27.2155 13.5793L29.8151 11.3268C30.2897 10.9159 30.0347 10.1368 29.4113 10.0872L25.9901 9.79675L24.6513 6.63759C24.4105 6.06384 23.5888 6.06384 23.348 6.63759L22.0092 9.78967L18.588 10.0801C17.9647 10.1297 17.7097 10.9088 18.1842 11.3197L20.7838 13.5722L20.0047 16.9155C19.863 17.5247 20.5217 18.0063 21.0601 17.6805L23.9997 15.9097Z" fill="#FFCC00"/>
<path d="M39.9997 15.9097L42.9392 17.6876C43.4776 18.0134 44.1363 17.5318 43.9947 16.9226L43.2155 13.5793L45.8151 11.3268C46.2897 10.9159 46.0347 10.1368 45.4113 10.0872L41.9901 9.79675L40.6513 6.63759C40.4105 6.06384 39.5888 6.06384 39.348 6.63759L38.0092 9.78967L34.588 10.0801C33.9647 10.1297 33.7097 10.9088 34.1842 11.3197L36.7838 13.5722L36.0047 16.9155C35.863 17.5247 36.5217 18.0063 37.0601 17.6805L39.9997 15.9097Z" fill="#FFCC00"/>
<path d="M55.9997 15.9097L58.9392 17.6876C59.4776 18.0134 60.1363 17.5318 59.9947 16.9226L59.2155 13.5793L61.8151 11.3268C62.2897 10.9159 62.0347 10.1368 61.4113 10.0872L57.9901 9.79675L56.6513 6.63759C56.4105 6.06384 55.5888 6.06384 55.348 6.63759L54.0092 9.78967L50.588 10.0801C49.9647 10.1297 49.7097 10.9088 50.1842 11.3197L52.7838 13.5722L52.0047 16.9155C51.863 17.5247 52.5217 18.0063 53.0601 17.6805L55.9997 15.9097Z" fill="#FFCC00"/>
<path d="M71.9997 15.9097L74.9392 17.6876C75.4776 18.0134 76.1363 17.5318 75.9947 16.9226L75.2155 13.5793L77.8151 11.3268C78.2897 10.9159 78.0347 10.1368 77.4113 10.0872L73.9901 9.79675L72.6513 6.63759C72.4105 6.06384 71.5888 6.06384 71.348 6.63759L70.0092 9.78967L66.588 10.0801C65.9647 10.1297 65.7097 10.9088 66.1842 11.3197L68.7838 13.5722L68.0047 16.9155C67.863 17.5247 68.5217 18.0063 69.0601 17.6805L71.9997 15.9097Z" fill="#FFCC00"/>
</svg>
