<svg width="20" height="21" viewBox="0 0 20 21" fill="none" xmlns="http://www.w3.org/2000/svg">
<path d="M10 0.669891C8.02219 0.669891 6.08879 1.25638 4.4443 2.35519C2.79981 3.45401 1.51809 5.01579 0.761209 6.84306C0.00433286 8.67032 -0.1937 10.681 0.192152 12.6208C0.578004 14.5606 1.53041 16.3424 2.92894 17.741C4.32746 19.1395 6.10929 20.0919 8.0491 20.4777C9.98891 20.8636 11.9996 20.6656 13.8268 19.9087C15.6541 19.1518 17.2159 17.8701 18.3147 16.2256C19.4135 14.5811 20 12.6477 20 10.6699C19.9971 8.01863 18.9425 5.4768 17.0678 3.60207C15.1931 1.72734 12.6513 0.672832 10 0.669891ZM10 18.4477C8.4617 18.4477 6.95795 17.9915 5.6789 17.1369C4.39985 16.2822 3.40296 15.0675 2.81427 13.6463C2.22559 12.2251 2.07157 10.6613 2.37167 9.15252C2.67178 7.64378 3.41254 6.25791 4.50028 5.17017C5.58803 4.08243 6.97389 3.34167 8.48263 3.04156C9.99137 2.74145 11.5552 2.89548 12.9764 3.48416C14.3976 4.07284 15.6124 5.06974 16.467 6.34879C17.3216 7.62784 17.7778 9.13159 17.7778 10.6699C17.7756 12.732 16.9554 14.709 15.4973 16.1672C14.0391 17.6253 12.0621 18.4455 10 18.4477ZM16.2963 10.6699C16.2963 10.9646 16.1792 11.2472 15.9709 11.4556C15.7625 11.6639 15.4799 11.781 15.1852 11.781H10C9.70532 11.781 9.4227 11.6639 9.21433 11.4556C9.00595 11.2472 8.88889 10.9646 8.88889 10.6699V5.48471C8.88889 5.19002 9.00595 4.9074 9.21433 4.69903C9.4227 4.49066 9.70532 4.37359 10 4.37359C10.2947 4.37359 10.5773 4.49066 10.7857 4.69903C10.994 4.9074 11.1111 5.19002 11.1111 5.48471V9.55878H15.1852C15.4799 9.55878 15.7625 9.67584 15.9709 9.88422C16.1792 10.0926 16.2963 10.3752 16.2963 10.6699Z" fill="#2F2F2F"/>
</svg>
